<mxfile host="Electron" modified="2024-05-03T21:46:05.783Z" agent="Mozilla/5.0 (Windows NT 10.0; Win64; x64) AppleWebKit/537.36 (KHTML, like Gecko) draw.io/24.2.5 Chrome/120.0.6099.109 Electron/28.1.0 Safari/537.36" etag="Hf-5xUE0pqrWWlZb2ZRo" version="24.2.5" type="device">
  <diagram name="Page-1" id="6DnJs82jz-kl6G0WqcHx">
    <mxGraphModel dx="1834" dy="886" grid="0" gridSize="10" guides="1" tooltips="1" connect="1" arrows="1" fold="1" page="0" pageScale="1" pageWidth="850" pageHeight="1100" math="0" shadow="0">
      <root>
        <mxCell id="0" />
        <mxCell id="1" parent="0" />
        <mxCell id="dpaYBmThkcin0_N8t3N3-4" style="edgeStyle=none;curved=1;rounded=0;orthogonalLoop=1;jettySize=auto;html=1;fontSize=12;startSize=8;endSize=8;" edge="1" parent="1" source="dpaYBmThkcin0_N8t3N3-1" target="dpaYBmThkcin0_N8t3N3-2">
          <mxGeometry relative="1" as="geometry" />
        </mxCell>
        <mxCell id="dpaYBmThkcin0_N8t3N3-5" style="edgeStyle=orthogonalEdgeStyle;rounded=0;orthogonalLoop=1;jettySize=auto;html=1;fontSize=12;startSize=8;endSize=8;" edge="1" parent="1" source="dpaYBmThkcin0_N8t3N3-1" target="dpaYBmThkcin0_N8t3N3-3">
          <mxGeometry relative="1" as="geometry" />
        </mxCell>
        <mxCell id="dpaYBmThkcin0_N8t3N3-1" value="Village Boy" style="rounded=1;whiteSpace=wrap;html=1;" vertex="1" parent="1">
          <mxGeometry x="71" y="107" width="120" height="60" as="geometry" />
        </mxCell>
        <mxCell id="dpaYBmThkcin0_N8t3N3-8" style="edgeStyle=none;curved=1;rounded=0;orthogonalLoop=1;jettySize=auto;html=1;fontSize=12;startSize=8;endSize=8;" edge="1" parent="1" source="dpaYBmThkcin0_N8t3N3-2" target="dpaYBmThkcin0_N8t3N3-7">
          <mxGeometry relative="1" as="geometry" />
        </mxCell>
        <mxCell id="dpaYBmThkcin0_N8t3N3-2" value="Traveler" style="rounded=1;whiteSpace=wrap;html=1;" vertex="1" parent="1">
          <mxGeometry x="71" y="297" width="120" height="60" as="geometry" />
        </mxCell>
        <mxCell id="dpaYBmThkcin0_N8t3N3-3" value="Errands" style="rounded=1;whiteSpace=wrap;html=1;" vertex="1" parent="1">
          <mxGeometry x="518" y="162" width="120" height="60" as="geometry" />
        </mxCell>
        <mxCell id="dpaYBmThkcin0_N8t3N3-6" value="Village Exploration" style="rounded=1;whiteSpace=wrap;html=1;" vertex="1" parent="1">
          <mxGeometry x="518" y="96" width="120" height="60" as="geometry" />
        </mxCell>
        <mxCell id="dpaYBmThkcin0_N8t3N3-9" style="edgeStyle=none;curved=1;rounded=0;orthogonalLoop=1;jettySize=auto;html=1;fontSize=12;startSize=8;endSize=8;" edge="1" parent="1" source="dpaYBmThkcin0_N8t3N3-7" target="dpaYBmThkcin0_N8t3N3-1">
          <mxGeometry relative="1" as="geometry" />
        </mxCell>
        <mxCell id="dpaYBmThkcin0_N8t3N3-7" value="New Comer" style="rounded=1;whiteSpace=wrap;html=1;" vertex="1" parent="1">
          <mxGeometry x="-209" y="300" width="120" height="60" as="geometry" />
        </mxCell>
      </root>
    </mxGraphModel>
  </diagram>
</mxfile>
